<?xml version="1.0" encoding="UTF-8"?> <svg xmlns="http://www.w3.org/2000/svg" id="Lager_1" data-name="Lager 1" viewBox="0 0 1945.29 618.33"><defs><style>.cls-1{fill:#e18732;}.cls-2{fill:#f5e6d7;}</style></defs><path class="cls-1" d="M630.2,460.09,564.84,573.33c-25.72,44.47-89.9,44.47-115.54,0L382,457.22a21,21,0,0,0-36.39.06l-66.71,116a66.67,66.67,0,0,1-57.81,33.42h-76.2a66.66,66.66,0,0,1-57.81-33.42L21.62,459.4c-25.57-44.46,6.52-99.9,57.81-99.9H325.49L182.8,111.7c-25.64-44.47,6.45-100,57.73-100H371.26A66.81,66.81,0,0,1,429.07,45L630.2,393.39A67,67,0,0,1,630.2,460.09Z"></path><path class="cls-2" d="M1177.4,440.68c0,8.68,4.88,16.81,15.72,26a23.68,23.68,0,0,1,7.6,17.35c0,13-9.76,22.78-22.78,22.78a34,34,0,0,1-21.15-7.59c-10.85-9.22-27.12-27.66-27.12-58.57v-307c0-14.64,11.93-23.86,23.87-23.86a23.7,23.7,0,0,1,23.86,23.86Z"></path><path class="cls-2" d="M1288,440.68c0,8.68,4.88,16.81,15.73,26a23.72,23.72,0,0,1,7.59,17.35c0,13-9.76,22.78-22.78,22.78a34,34,0,0,1-21.15-7.59c-10.85-9.22-27.12-27.66-27.12-58.57v-307c0-14.64,11.94-23.86,23.87-23.86A23.7,23.7,0,0,1,1288,133.72Z"></path><path class="cls-2" d="M1716.74,435.8l74.84-194.16c4.34-11.38,14.11-15.72,22.78-15.72a23.71,23.71,0,0,1,23.86,23.86,29.51,29.51,0,0,1-2.71,11.93l-96,230.49c-4.88,12.47-14.64,16.81-22.78,16.81s-17.89-4.34-22.77-16.81l-96-230.49a29.67,29.67,0,0,1-2.71-11.93,24.07,24.07,0,0,1,46.64-8.14Z"></path><path class="cls-2" d="M1900.1,109.32a32.63,32.63,0,0,1,32.54,32.54,32.29,32.29,0,0,1-32.54,32.54c-18.44,0-32.54-14.1-32.54-32.54A32.29,32.29,0,0,1,1900.1,109.32ZM1924,483c0,14.64-11.94,23.86-23.87,23.86A23.7,23.7,0,0,1,1876.24,483V249.78c0-15.19,13-23.86,23.32-23.86,11.93,0,24.41,8.67,24.41,23.86Z"></path><path class="cls-2" d="M1556.49,387a23.14,23.14,0,0,0,23.32-23.32c0-61.28-30.37-139.92-120.94-139.92-93.28,0-122.57,82.43-122.57,128.53v24.4c0,49.36,30.37,131.79,124.74,131.79,42.84,0,70-14.64,88.94-33.08,4.88-4.34,7-11.39,7-16.82a23.15,23.15,0,0,0-23.32-23.32c-5.43,0-11.39,2.17-16.81,7.05-12.48,11.39-28.21,22.78-56.41,22.78-48.26,0-73.75-43.38-76.46-78.09V344.14c2.17-35.79,24.94-77,74.84-77,44.47,0,70,39.05,72.13,77h-84.24a21.42,21.42,0,0,0-21.42,21.43h0A21.42,21.42,0,0,0,1446.76,387Z"></path><path class="cls-2" d="M1094.53,468.88,962.75,127.21c-5.43-14.1-15.19-17.89-23.32-17.89-8.68,0-17.9,4.34-22.78,16.81L781.07,474.84a30,30,0,0,0-1.63,9.22c0,13.56,11.93,23.32,23.32,23.32,8.68,0,18.44-4.33,22.78-15.18L939.43,192.83l56.91,151H938.83a21.7,21.7,0,0,0-21.69,21.7h0a21.69,21.69,0,0,0,21.69,21.69h73.86l39.54,104.94a23.24,23.24,0,0,0,22.24,15.18c12.47,0,23.86-9.22,23.86-23.86C1098.33,477.56,1096.16,473.22,1094.53,468.88Z"></path></svg> 